<?xml version="1.0" encoding="utf-8"?>
<!-- Generator: Adobe Illustrator 27.5.0, SVG Export Plug-In . SVG Version: 6.00 Build 0)  -->
<svg version="1.1" id="Capa_1" xmlns="http://www.w3.org/2000/svg" xmlns:xlink="http://www.w3.org/1999/xlink" x="0px" y="0px"
	 viewBox="0 0 16 16" style="enable-background:new 0 0 16 16;" xml:space="preserve">
<style type="text/css">
	.st0{fill:#333333;}
	.st1{fill:#94989B;}
	.st2{fill:#F2B200;}
</style>
<g id="Capa_1_00000062890209120844400940000003448838195393557167_">
</g>
<g>
	<g>
		<g>
			<path class="st0" d="M15.61,11.12L15.61,11.12L14.5,5.47c-0.25-1.31-1.38-2.31-2.74-2.32l0,0H4.23c-1.37,0-2.52,1-2.77,2.32
				l-1.12,5.65c-0.01,0.1-0.03,0.21-0.03,0.31c0,0.79,0.63,1.43,1.41,1.43c0.5,0,0.94-0.26,1.19-0.66l1.85-2.31
				c0.29,0.28,0.69,0.46,1.13,0.46c0.91,0,1.66-0.75,1.66-1.68h0.9c0,0.93,0.74,1.68,1.66,1.68c0.43,0,0.82-0.16,1.12-0.44l1.84,2.3
				c0.25,0.4,0.69,0.66,1.19,0.66c0.78,0,1.41-0.65,1.41-1.43C15.64,11.33,15.63,11.22,15.61,11.12z"/>
			<path class="st1" d="M5.15,6.28c0.18,0.18,0.38,0.13,0.46-0.12V5.37C5.54,5.12,5.33,5.06,5.15,5.23L4.96,5.43
				c-0.18,0.18-0.18,0.49,0,0.66L5.15,6.28z"/>
			<path class="st1" d="M3.84,4.37C3.59,4.44,3.55,4.65,3.73,4.82L3.9,5.01c0.18,0.18,0.47,0.18,0.65,0l0.19-0.19
				c0.18-0.18,0.13-0.4-0.12-0.47L3.84,4.37z"/>
			<path class="st1" d="M3.31,5.23C3.14,5.06,2.93,5.12,2.86,5.35v0.79C2.93,6.4,3.14,6.46,3.31,6.26l0.18-0.19
				c0.18-0.18,0.18-0.49,0-0.66L3.31,5.23z"/>
			<path class="st1" d="M4.62,7.15c0.25-0.07,0.29-0.28,0.12-0.46L4.56,6.5c-0.18-0.18-0.47-0.18-0.65,0L3.73,6.69
				C3.53,6.87,3.59,7.07,3.84,7.15H4.62z"/>
			<path class="st2" d="M12.44,5.76c-0.25,0-0.46,0.21-0.46,0.47c0,0.26,0.21,0.47,0.46,0.47c0.25,0,0.46-0.21,0.46-0.47
				C12.91,5.97,12.7,5.76,12.44,5.76z"/>
			<path class="st2" d="M11.11,6.23c-0.25,0-0.46,0.21-0.46,0.47c0,0.26,0.21,0.47,0.46,0.47c0.25,0,0.46-0.21,0.46-0.47
				C11.57,6.44,11.36,6.23,11.11,6.23z"/>
			<path class="st2" d="M12.39,5.29c0.25,0,0.46-0.21,0.46-0.47c0-0.26-0.21-0.47-0.46-0.47s-0.46,0.21-0.46,0.47
				C11.94,5.07,12.14,5.29,12.39,5.29z"/>
			<path class="st2" d="M11.07,5.76c0.25,0,0.46-0.21,0.46-0.47c0-0.26-0.21-0.47-0.46-0.47s-0.46,0.21-0.46,0.47
				C10.6,5.54,10.8,5.76,11.07,5.76z"/>
			<ellipse class="st1" cx="10.1" cy="8.65" rx="1.1" ry="1.13"/>
			<path class="st1" d="M5.89,7.51c-0.62,0-1.1,0.5-1.1,1.13c0,0.62,0.5,1.13,1.1,1.13c0.62,0,1.1-0.51,1.1-1.13
				C6.99,8.03,6.51,7.51,5.89,7.51z"/>
		</g>
	</g>
</g>
</svg>
